<svg width="72" height="72" viewBox="0 0 72 72" fill="none" xmlns="http://www.w3.org/2000/svg">
<circle cx="36" cy="36" r="35" stroke="#081A66" stroke-width="2"/>
<g filter="url(#filter0_d_402_115)">
<path d="M42 42H41.6875C40.9375 42 40.1875 42.1875 39.4375 42.4375C38.375 42.8125 37.1875 43 36 43C34.75 43 33.5625 42.8125 32.5 42.4375C31.75 42.1875 31 42.0625 30.25 42.0625H30C25.5625 42.0625 22 45.625 22 50C22 51.125 22.875 52 24 52H48C49.0625 52 50 51.125 50 50C50 45.625 46.375 42 42 42ZM24 50C24 46.75 26.6875 44.0625 30 44H30.25C30.6875 44 31.1875 44.125 31.8125 44.375C33.125 44.8125 34.5 45 35.9375 45C37.4375 45 38.8125 44.8125 40.125 44.375C40.75 44.125 41.25 44 41.6875 44H42C45.25 44.0625 47.9375 46.75 48 50H24ZM25 34C25.5 34 26 33.5625 26 33V32C26 26.5 30.4375 22 36 22C41.5 22 46 26.5 46 32V33C45.9375 35.8125 43.75 38 41 38H39C39 36.9375 38.0625 36 37 36H35C33.875 36 33 36.9375 33 38C33 39.125 33.875 40 35 40H41C44.8125 40 47.9375 36.875 48 33V32C48 25.4375 42.5625 20 36 20C29.375 20 24 25.4375 24 32V33C24 33.5625 24.4375 34 25 34ZM36 26C39.3125 26 42 28.6875 42 32C42 33.5625 41.375 34.9375 40.4375 36H41C42.0625 36 43 35.4375 43.5 34.625C43.8125 33.8125 44 32.9375 44 32C44 27.625 40.375 24 36 24C31.5625 24 28 27.625 28 32C28 34.5625 29.1875 36.75 31 38.25C31 38.1875 31 38.125 31 38C31 37.3125 31.1875 36.625 31.5 36C30.5625 35 29.9375 33.5625 29.9375 32C29.9375 28.6875 32.625 26.0625 35.9375 26.0625C35.9375 26.0625 35.9375 26 36 26Z" fill="#081A66"/>
</g>
<defs>
<filter id="filter0_d_402_115" x="0" y="20" width="73" height="34" filterUnits="userSpaceOnUse" color-interpolation-filters="sRGB">
<feFlood flood-opacity="0" result="BackgroundImageFix"/>
<feColorMatrix in="SourceAlpha" type="matrix" values="0 0 0 0 0 0 0 0 0 0 0 0 0 0 0 0 0 0 127 0" result="hardAlpha"/>
<feOffset dx="1" dy="2"/>
<feColorMatrix type="matrix" values="0 0 0 0 0.890196 0 0 0 0 0.886275 0 0 0 0 0.937255 0 0 0 1 0"/>
<feBlend mode="normal" in2="BackgroundImageFix" result="effect1_dropShadow_402_115"/>
<feBlend mode="normal" in="SourceGraphic" in2="effect1_dropShadow_402_115" result="shape"/>
</filter>
</defs>
</svg>